<svg xmlns="http://www.w3.org/2000/svg" viewBox="0 0 849.48 834.86"><defs><style>.cls-1{fill:#ded9ff;}.cls-10,.cls-2{fill:#1d1d1b;}.cls-11,.cls-12,.cls-3,.cls-5,.cls-8{fill:#fff;}.cls-4,.cls-9{fill:#5f19dc;}.cls-5{stroke:#000;}.cls-5,.cls-7,.cls-8,.cls-9{stroke-miterlimit:10;}.cls-10,.cls-5,.cls-7,.cls-8{stroke-width:1.5px;}.cls-6,.cls-7{fill:#beb4ff;}.cls-10,.cls-11,.cls-12,.cls-7,.cls-8,.cls-9{stroke:#1d1d1b;}.cls-9{stroke-width:1.5px;}.cls-10,.cls-11,.cls-12{stroke-linejoin:round;}.cls-11,.cls-12{stroke-linecap:round;}.cls-11{stroke-width:5px;}.cls-12{stroke-width:5.63px;}</style></defs><g id="Livello_2" data-name="Livello 2"><g id="new"><path class="cls-1" d="M627.52,209.62C540.9,122.24,565.7,67.48,506.44,27,415.25-35.23,245.05,18.33,144.64,104,21.67,208.82-41.78,400.31,30.5,573.54,107.47,758,310,853.79,490.72,824.93c161.38-25.77,320-153.27,335.91-306.18,1.73-16.58,9.33-106.17-44-183.42C738.53,271.49,696.17,278.89,627.52,209.62Z"/><path class="cls-2" d="M729.32,348.33a87.16,87.16,0,0,1-11.64-1.57l.76-3.62a82.58,82.58,0,0,0,11,1.49Z"/><path class="cls-3" d="M800.1,401.63,822,405.72a3.34,3.34,0,0,0,3.89-2.69l21.8-119.15a3.76,3.76,0,0,0-3-4.37l-55.54-10.35Z"/><path class="cls-3" d="M800.1,401.63,822,405.72a3.32,3.32,0,0,0,2.84-.81s1.24-1.18,1.87-4.6c.54-2.93,20.82-115.57,20.82-115.57a3.88,3.88,0,0,0-2.91-4.8L789.1,269.59Z"/><path class="cls-2" d="M822.63,407.62a5.17,5.17,0,0,1-1-.09l-21.92-4.08a1.85,1.85,0,1,1,.67-3.63l21.92,4.08a1.48,1.48,0,0,0,1.27-.36h0a8.46,8.46,0,0,0,1.29-3.56c.54-2.9,20.62-114.44,20.82-115.56.25-1.37-.34-2.46-1.43-2.66l-55.54-10.35a1.85,1.85,0,1,1,.68-3.63L845,278.13c3.13.58,5,3.57,4.4,6.95-.21,1.12-20.29,112.66-20.83,115.57-.7,3.81-2.12,5.33-2.4,5.59A5.17,5.17,0,0,1,822.63,407.62Z"/><path class="cls-3" d="M830.65,325.53l-32.3,81.64a2.56,2.56,0,0,1-2.86,1.59L667.42,384.89a2.6,2.6,0,0,1-1.93-3.5l49-123.79a2.57,2.57,0,0,1,2.86-1.58L845.4,279.88a2.59,2.59,0,0,1,1.93,3.5l-13.41,33.95Z"/><path class="cls-2" d="M796,410.65a4.43,4.43,0,0,1-.81-.07L667.08,386.71A4.41,4.41,0,0,1,664,384.5a4.48,4.48,0,0,1-.25-3.78l49-123.8a4.41,4.41,0,0,1,4.91-2.72l128.07,23.86a4.45,4.45,0,0,1,3.31,6L835.64,318a1.85,1.85,0,0,1-3.44-1.36l13.41-33.95a.78.78,0,0,0,0-.64.73.73,0,0,0-.51-.36L717,257.83a.73.73,0,0,0-.8.45l-49,123.79a.72.72,0,0,0,0,.64.71.71,0,0,0,.5.37l128.07,23.86a.72.72,0,0,0,.8-.44l32.3-81.65a1.85,1.85,0,0,1,3.44,1.36l-32.3,81.64A4.44,4.44,0,0,1,796,410.65Z"/><polygon class="cls-1" points="708.94 297.63 733.35 302.18 724.59 324.32 700.18 319.77 708.94 297.63"/><polygon class="cls-1" points="698.23 324.58 722.64 329.13 713.87 351.28 689.46 346.73 698.23 324.58"/><polygon class="cls-1" points="738.3 303.1 762.72 307.65 753.95 329.8 729.54 325.25 738.3 303.1"/><polygon class="cls-1" points="727.59 330.05 752 334.6 743.24 356.75 718.83 352.2 727.59 330.05"/><polygon class="cls-4" points="767.67 308.57 792.08 313.12 783.31 335.27 758.9 330.72 767.67 308.57"/><polygon class="cls-1" points="756.95 335.52 781.36 340.07 772.6 362.22 748.19 357.67 756.95 335.52"/><polygon class="cls-4" points="797.03 314.04 821.44 318.59 812.67 340.74 788.26 336.19 797.03 314.04"/><polygon class="cls-4" points="786.31 341 810.72 345.54 801.96 367.69 777.55 363.14 786.31 341"/><path class="cls-2" d="M731.86,271.33a1.32,1.32,0,0,1-.34,0,13,13,0,0,1-5-23.42,12.74,12.74,0,0,1,9.63-2.05l.77.17a1.85,1.85,0,1,1-.9,3.59,4.88,4.88,0,0,0-.55-.12,9.08,9.08,0,0,0-6.85,1.45,9.28,9.28,0,0,0,3.53,16.75,1.85,1.85,0,0,1-.33,3.67Z"/><path class="cls-2" d="M748.3,274.39a2,2,0,0,1-.34,0,13,13,0,0,1-10.34-15.09,12.86,12.86,0,0,1,15-10.38l.77.16a1.85,1.85,0,0,1-.89,3.59l-.56-.12A9,9,0,0,0,745.1,254a9.17,9.17,0,0,0-3.85,6,9.27,9.27,0,0,0,7.38,10.79,1.85,1.85,0,0,1-.33,3.67Z"/><path class="cls-2" d="M764.74,277.45a2,2,0,0,1-.34,0,13,13,0,0,1-10.34-15.09,12.88,12.88,0,0,1,15-10.38l.77.17a1.84,1.84,0,1,1-.89,3.58l-.56-.12a9.09,9.09,0,0,0-6.85,1.46,9.19,9.19,0,0,0-3.85,5.95,9.28,9.28,0,0,0,7.39,10.8,1.85,1.85,0,0,1-.34,3.66Z"/><path class="cls-2" d="M781.18,280.52a2,2,0,0,1-.34,0,13,13,0,0,1-10.34-15.1,12.88,12.88,0,0,1,15-10.38l.77.17a1.85,1.85,0,1,1-.89,3.59,5.05,5.05,0,0,0-.56-.12,9,9,0,0,0-6.85,1.46,9.27,9.27,0,0,0,3.54,16.74,1.85,1.85,0,0,1-.34,3.67Z"/><path class="cls-2" d="M797.62,283.58l-.34,0a13,13,0,0,1-5-23.43,12.79,12.79,0,0,1,9.63-2c.26.05.52.1.77.17a1.84,1.84,0,1,1-.89,3.58l-.55-.12a9.08,9.08,0,0,0-6.86,1.46A9.28,9.28,0,0,0,798,279.92a1.85,1.85,0,0,1-.34,3.66Z"/><path class="cls-2" d="M814.06,286.64l-.34,0a13,13,0,0,1-5-23.42,12.76,12.76,0,0,1,9.63-2.05l.77.17a1.85,1.85,0,1,1-.89,3.59,5.41,5.41,0,0,0-.55-.12,9.07,9.07,0,0,0-6.86,1.45,9.18,9.18,0,0,0-3.84,6A9.27,9.27,0,0,0,814.4,283a1.85,1.85,0,0,1-.34,3.66Z"/><path class="cls-2" d="M829.57,289.53a2,2,0,0,1-.34,0,13,13,0,0,1-10.34-15.09,12.87,12.87,0,0,1,24.69-2.33,1.85,1.85,0,0,1-3.45,1.34,9.15,9.15,0,0,0-6.91-5.75,9,9,0,0,0-6.85,1.45,9.28,9.28,0,0,0,3.53,16.75,1.85,1.85,0,0,1-.33,3.66Z"/><path class="cls-4" d="M496.24,794.29l219.57-2.18c39.7,0,73.66-25.92,80.62-65.38L834,513.46c4.48-25.4-14.88-48.73-40.44-48.73H650.31Z"/><path class="cls-1" d="M774.62,631.31l-.33,0a1.91,1.91,0,0,1-1.56-2.21L791,525.54a1.92,1.92,0,0,1,3.78.66L776.51,629.73A1.91,1.91,0,0,1,774.62,631.31Z"/><path class="cls-4" d="M332.15,100.69a1.49,1.49,0,0,1-.29-2.91c3.7-1.2,7.47-2.34,11.2-3.41a1.5,1.5,0,1,1,.83,2.88c-3.7,1.06-7.44,2.2-11.11,3.38A1.36,1.36,0,0,1,332.15,100.69Z"/><ellipse class="cls-5" cx="87.59" cy="377.23" rx="58.69" ry="58.89" transform="translate(-297.06 422.06) rotate(-83.58)"/><path class="cls-4" d="M89.49,402.75a1.51,1.51,0,0,1-1.33-1.45l-.57-22.07A7.68,7.68,0,0,0,85.32,374l-.12-.14-18.68-24A1.5,1.5,0,0,1,68.89,348L87.52,371.9a10.71,10.71,0,0,1,3.07,7.25l.57,22.07a1.5,1.5,0,0,1-1.46,1.54Z"/><path class="cls-6" d="M79.38,423.88A3.4,3.4,0,1,1,83,427,3.39,3.39,0,0,1,79.38,423.88Z"/><path class="cls-6" d="M115,416.72a3.37,3.37,0,0,1-.37-4.78,3.42,3.42,0,0,1,4.81-.33,3.36,3.36,0,0,1,.37,4.77A3.41,3.41,0,0,1,115,416.72Z"/><path class="cls-6" d="M135,386.7a3.41,3.41,0,0,1-3.67-3.12,3.38,3.38,0,0,1,3.15-3.61,3.42,3.42,0,0,1,3.68,3.12A3.38,3.38,0,0,1,135,386.7Z"/><path class="cls-6" d="M127.69,351.41a3.45,3.45,0,0,1-4.82.36,3.36,3.36,0,0,1-.35-4.77,3.44,3.44,0,0,1,4.82-.36A3.36,3.36,0,0,1,127.69,351.41Z"/><path class="cls-6" d="M97.36,331.51a3.4,3.4,0,1,1-3.65-3.13A3.4,3.4,0,0,1,97.36,331.51Z"/><path class="cls-6" d="M61.77,338.67a3.37,3.37,0,0,1,.37,4.78,3.43,3.43,0,0,1-4.81.34A3.37,3.37,0,0,1,57,339,3.43,3.43,0,0,1,61.77,338.67Z"/><path class="cls-6" d="M41.76,368.69a3.42,3.42,0,0,1,3.67,3.12,3.37,3.37,0,0,1-3.15,3.61,3.42,3.42,0,0,1-3.68-3.12A3.38,3.38,0,0,1,41.76,368.69Z"/><path class="cls-6" d="M49.05,404a3.45,3.45,0,0,1,4.82-.37,3.35,3.35,0,0,1,.35,4.77,3.45,3.45,0,0,1-4.82.37A3.37,3.37,0,0,1,49.05,404Z"/><path class="cls-2" d="M419.43,238.47a1.45,1.45,0,0,1-1.07-.65l-56.48-83.5a1.5,1.5,0,0,1,2.49-1.69l56.47,83.51a1.5,1.5,0,0,1-1.41,2.33Z"/><path class="cls-2" d="M423.57,175.23a1.51,1.51,0,0,1-.81-.35L377.6,136.29a1.5,1.5,0,1,1,1.95-2.28l45.16,38.59a1.5,1.5,0,0,1,.17,2.12A1.49,1.49,0,0,1,423.57,175.23Z"/><path class="cls-7" d="M202.51,127.09c-4-2.56-4.74-8.42-1.73-13.06L238,56.61l14.29,9.24L215,123.38C212,128,206.44,129.63,202.51,127.09Z"/><path class="cls-7" d="M302.33,47.68l-42-23.32-20.8-7-12.12-.85h-.09c-2.16-.27-5.68,2.15-8.6,6s-4.22,7.83-3.44,9.87l3.77,10.87,12.33,17.93,34.34,34.2,15.59,55.39.16.37c-3.78-14,5.16-39.57,23.49-63.76s40.42-39.6,54.9-39.71v0H302.33Z"/><ellipse class="cls-7" cx="327.69" cy="104.77" rx="68.2" ry="28.59" transform="translate(46.41 302.86) rotate(-52.88)"/><path class="cls-8" d="M302.5,47.68h57.37v0c-14.48.11-36.59,15.55-54.9,39.71s-27.27,49.73-23.49,63.76l-.16-.37L265.76,95.5l-.37-1.28c-1.77-6.44,2.18-18.06,10.5-29,8.53-11.21,19.32-17.6,25.91-17.57Z"/><path class="cls-2" d="M230.94,60.56l.56.74c-3.06-4,.33-14.28,7.56-23.82,7.37-9.73,16.69-15.34,21.28-13.12l-.69-.23-19.74-6.6c-3.42-1-9.93,3.07-14.94,9.69-4.84,6.38-7.17,13.26-5.63,16.45Z"/><path class="cls-9" d="M323.63,101.75c-5.27,7-11.89,10.79-14.8,8.57s-1-9.66,4.28-16.61,11.9-10.78,14.8-8.56S328.9,94.8,323.63,101.75Z"/><path class="cls-10" d="M328,85.1c-2.91-2.22-9.66,1.52-14.8,8.57-8.63,11.81-4.88,16.15-4.39,16.64,0,0,0,0,0,0L295,103.66a140.37,140.37,0,0,1,22.48-29.82Z"/><path class="cls-4" d="M393.39,67a1.49,1.49,0,0,1,.11-3c2-.08,4-.14,6-.18a1.5,1.5,0,1,1,.06,3q-3,.06-6,.17A.81.81,0,0,1,393.39,67Z"/><path class="cls-4" d="M411.73,66.74a1.5,1.5,0,0,1,.19-3c4.11,0,8.28.17,12.39.35a1.5,1.5,0,1,1-.14,3c-4.07-.18-8.21-.3-12.29-.35Zm61.4,5.87H473c-4-.73-8.11-1.39-12.14-2a1.5,1.5,0,1,1,.43-3c4.07.59,8.19,1.27,12.24,2a1.5,1.5,0,0,1-.43,3ZM436.4,67.86a1.5,1.5,0,0,1,.28-3c4.1.33,8.26.72,12.34,1.18a1.51,1.51,0,0,1,1.33,1.66A1.49,1.49,0,0,1,448.69,69c-4.06-.45-8.17-.85-12.24-1.17Z"/><path class="cls-4" d="M491.1,76.32l-.17,0Q488,75.62,485.1,75a1.5,1.5,0,0,1,.63-2.93q2.94.63,5.88,1.31a1.51,1.51,0,0,1,1.12,1.8A1.49,1.49,0,0,1,491.1,76.32Z"/><path class="cls-4" d="M152.28,192.12a1.45,1.45,0,0,1-.81-.36,1.49,1.49,0,0,1-.15-2.11c1.32-1.52,2.66-3,4-4.51a1.49,1.49,0,0,1,2.12-.11,1.51,1.51,0,0,1,.11,2.12c-1.33,1.48-2.66,3-4,4.47A1.45,1.45,0,0,1,152.28,192.12Z"/><path class="cls-4" d="M164.65,178.63a1.53,1.53,0,0,1-.87-.41,1.5,1.5,0,0,1,0-2.12c2.84-3,5.77-5.9,8.71-8.76a1.5,1.5,0,0,1,2.09,2.15c-2.91,2.83-5.82,5.76-8.64,8.69A1.5,1.5,0,0,1,164.65,178.63Zm17.64-17.16a1.48,1.48,0,0,1-.94-.48,1.5,1.5,0,0,1,.1-2.12c3-2.76,6.14-5.51,9.27-8.17a1.5,1.5,0,1,1,1.94,2.28c-3.09,2.64-6.19,5.37-9.19,8.11A1.54,1.54,0,0,1,182.29,161.47Z"/><path class="cls-4" d="M201,145.5a1.48,1.48,0,0,1-1-.56,1.51,1.51,0,0,1,.23-2.11q2.35-1.87,4.74-3.71a1.5,1.5,0,1,1,1.83,2.37q-2.35,1.83-4.7,3.69A1.49,1.49,0,0,1,201,145.5Z"/><path class="cls-4" d="M67,306.64a1.46,1.46,0,0,1-.5-.12,1.49,1.49,0,0,1-.78-2q1.19-2.76,2.42-5.51a1.5,1.5,0,0,1,2.74,1.23c-.82,1.81-1.62,3.64-2.41,5.47A1.49,1.49,0,0,1,67,306.64Z"/><path class="cls-4" d="M72.75,294a1.54,1.54,0,0,1-.55-.14,1.51,1.51,0,0,1-.71-2c1.13-2.36,2.3-4.75,3.48-7.1a1.5,1.5,0,0,1,2.68,1.34c-1.17,2.33-2.33,4.7-3.45,7A1.5,1.5,0,0,1,72.75,294Z"/><path class="cls-4" d="M79.81,279.92a1.36,1.36,0,0,1-.6-.17,1.49,1.49,0,0,1-.62-2q1.41-2.67,2.86-5.31a1.5,1.5,0,1,1,2.63,1.45c-1,1.74-1.91,3.5-2.84,5.26A1.49,1.49,0,0,1,79.81,279.92Z"/><path class="cls-4" d="M61.52,490.32A1.5,1.5,0,0,1,60.09,489c-.24-2-.47-4-.67-6a1.5,1.5,0,1,1,3-.31q.32,3,.66,5.94a1.5,1.5,0,0,1-1.31,1.67Z"/><path class="cls-4" d="M59.87,473.22a1.49,1.49,0,0,1-1.44-1.39c-.28-3.72-.5-7.49-.66-11.2a1.51,1.51,0,0,1,1.44-1.57,1.5,1.5,0,0,1,1.56,1.44c.16,3.68.38,7.42.65,11.11A1.5,1.5,0,0,1,60,473.22Z"/><path class="cls-4" d="M58.9,450.88a1.5,1.5,0,0,1-1.45-1.48q0-3,0-6a1.5,1.5,0,0,1,1.5-1.5,1.52,1.52,0,0,1,1.5,1.51q0,3,0,6A1.5,1.5,0,0,1,59,450.88Z"/><path class="cls-4" d="M513.75,88.74,533,147.51a2.19,2.19,0,0,1-2.49,2.71l-19.75-1.93a2.14,2.14,0,0,0-2.32,3.07l38.51,67.95c1.28,2.27,5.06,1,4.36-1.47l-12-42.61a2.19,2.19,0,0,1,2.51-2.63L561,174.5a2.15,2.15,0,0,0,2.34-3L518.12,87.23C516.85,84.87,512.93,86.23,513.75,88.74Z"/><path class="cls-4" d="M653.58,88l-33.05,67.32c-.8,1.62-3.06,2.07-5,1L595.1,145.35c-2.24-1.2-4.76-.45-5.24,1.57l-21,89.42c-.92,3.92,5.62,6.82,7.38,3.28l27.34-55.07c.79-1.6,3-2.05,5-1L628.46,194c2.2,1.16,4.65.45,5.18-1.49L661,91.32C662,87.39,655.35,84.36,653.58,88Z"/><path class="cls-4" d="M698.9,169.9,659,206.54a2.63,2.63,0,0,1-3.47,0l-9.76-8.79a2.62,2.62,0,0,0-3.75.35l-38.58,51.2c-1.69,2.24,1.61,4.71,3.73,2.78L640,222.18a2.63,2.63,0,0,1,3.44-.05l9.58,8.46a2.63,2.63,0,0,0,3.7-.33l45.89-57.54C704.38,170.49,701,167.94,698.9,169.9Z"/><path class="cls-11" d="M754.6,744.27c-6.38-25.48-11-49.14-35.55-113.83-17-44.91,8.84-126.81-44-175.48-84.15-77.47-213.32,6.67-232.39,52-13.53,32.12-36.55,74.18-55.35,97.41-26.69,33-62.88,51.37-86.5,65.06l-16.32,9.46a54.57,54.57,0,0,1-34.62,6.89L248,685.5a75.38,75.38,0,0,0-52.18,12.27l40.58,15.54a100.7,100.7,0,0,0,76.52-1.57c23.24-10.22,92-21.17,118.63-48.17,36.53-37.09,58.38-71.11,69.93-86.52,17.46,40,9.39,89.51,25.45,132.9l8.46,31.23s-3,6,75.58,17.38c56.61,8.18,108,4.57,132.3,1.91A13.1,13.1,0,0,0,754.6,744.27Z"/><path class="cls-11" d="M664.22,510s11.52,124-56.12,172.76c-31,22.37-95.88,36.51-190.9,30.77,0,0-19.87-2.25-36.52-22.13-10.63-12.7-36.55-6.16-51.92-9.93a5.64,5.64,0,0,1-.5-10.8l42.81-14.81a19.29,19.29,0,0,1,18.6,3.36l19.87,16.43A19.23,19.23,0,0,0,423.08,680c21.43-1.42,118.22-30.29,128.87-46.82,19.89-30.88,27.21-78.5,22.33-113.8"/><path class="cls-2" d="M156.56,711.8l210.29,0L236.18,512.93a26.76,26.76,0,0,0-22.48-12L43,500.85c-10.84,0-17.42,11.61-11.63,20.51Z"/><path class="cls-3" d="M176.28,611.73c4.66,7.18,14.69,13,22.4,13s10.18-5.82,5.51-13-14.69-13-22.4-13S171.61,604.55,176.28,611.73Z"/><path class="cls-2" d="M167.76,724.49l329.88.06A12.33,12.33,0,0,0,510,712.21l.41-1.89-354.56-.06-.41,1.88A12.35,12.35,0,0,0,167.76,724.49Z"/><path class="cls-11" d="M501.13,576.2S491,551.67,484.5,547.32"/><path class="cls-6" d="M361.33,240.84c0,5.44-2,9.72-6.92,9.72H172.54c-4.93,0-8.57-4.28-8.57-9.72v-.09c0-5.44,3.64-8.51,8.57-8.51H354.41c4.93,0,6.92,3.07,6.92,8.51Z"/><circle class="cls-5" cx="124.64" cy="237.74" r="36.79" transform="translate(-131.6 157.76) rotate(-45)"/><path class="cls-1" d="M136.64,219.76c0,6.94-5.62,14.44-12.56,14.44s-12.57-7.5-12.57-14.44,5.63-11.86,12.57-11.86S136.64,212.82,136.64,219.76Z"/><path class="cls-1" d="M108.48,260.92h30.68a7.43,7.43,0,0,0,7.07-5.17l1.65-5.16a7.41,7.41,0,0,0-4.48-9.22c-12.49-4.57-25.39-4-38.62.42a7.39,7.39,0,0,0-4.74,9l1.27,4.69A7.44,7.44,0,0,0,108.48,260.92Z"/><rect class="cls-4" x="170.62" y="262.05" width="100.51" height="12.48" rx="2.82"/><rect class="cls-4" x="169.64" y="235.11" width="136.32" height="12.48" rx="2.82"/><path class="cls-5" d="M292.6,288.1a1.69,1.69,0,0,1,2-1.31l98.6,19.45a1.67,1.67,0,0,1,1.32,1.95L372.13,374.8a4.1,4.1,0,0,1-4.68,2.72l-92.84-18.31a4.93,4.93,0,0,1-3.72-6.41Z"/><path class="cls-4" d="M331.15,338.93a11.22,11.22,0,0,1-9.2-4.8l-23-33.35a1.2,1.2,0,0,1,.31-1.66,1.19,1.19,0,0,1,1.65.31l23,33.35a8.84,8.84,0,0,0,10.94,3l43.86-19.9a1.19,1.19,0,1,1,1,2.16l-43.85,19.91A11.23,11.23,0,0,1,331.15,338.93Z"/><path class="cls-4" d="M362.12,364.77a1.2,1.2,0,0,1-1-.6l-12.74-22.25a1.19,1.19,0,0,1,2.07-1.18L363.15,363a1.18,1.18,0,0,1-.44,1.62A1.16,1.16,0,0,1,362.12,364.77Z"/><path class="cls-4" d="M284.32,350.78a1.19,1.19,0,0,1-.65-2.19l26.24-16.95a1.19,1.19,0,0,1,1.29,2L285,350.59A1.2,1.2,0,0,1,284.32,350.78Z"/><path class="cls-5" d="M184.88,396.22a1.9,1.9,0,0,1,1.77-2l114.2-8a1.9,1.9,0,0,1,2,1.76l-4.74,79.89a4.66,4.66,0,0,1-4.33,4.38l-107.52,7.53a5.62,5.62,0,0,1-6-5.94Z"/><path class="cls-4" d="M238.58,440.76a12.46,12.46,0,0,1-7.54-2.9L195.83,408a1.06,1.06,0,1,1,1.37-1.62l35.22,29.81a10.33,10.33,0,0,0,13.27,0L288,401.29a1.06,1.06,0,1,1,1.35,1.64l-42.29,34.95A12.4,12.4,0,0,1,238.58,440.76Z"/><path class="cls-4" d="M283.75,459.55a1,1,0,0,1-.71-.31l-20.63-20.66a1.07,1.07,0,0,1,1.51-1.51l20.63,20.67a1.06,1.06,0,0,1,0,1.5A1,1,0,0,1,283.75,459.55Z"/><path class="cls-4" d="M194.05,467.35a1.07,1.07,0,0,1-.67-.27,1.06,1.06,0,0,1-.08-1.5l23.79-26.46a1.07,1.07,0,0,1,1.59,1.43L194.88,467A1,1,0,0,1,194.05,467.35Z"/><path class="cls-2" d="M83.76,834.84a1.49,1.49,0,0,1-1.49-1.39l-4.16-67.18a1.5,1.5,0,1,1,3-.22l4.15,67.18a1.49,1.49,0,0,1-1.39,1.6Z"/><polygon class="cls-6" points="771.62 833.3 84.23 833.3 78.04 758 776.43 758 771.62 833.3"/><rect class="cls-6" x="68.78" y="726.12" width="729.7" height="38.83" rx="2.92" transform="translate(867.25 1491.07) rotate(180)"/><path class="cls-2" d="M795.55,766.45H71.7A4.42,4.42,0,0,1,67.28,762V729a4.42,4.42,0,0,1,4.42-4.42H795.55A4.43,4.43,0,0,1,800,729v33A4.43,4.43,0,0,1,795.55,766.45ZM71.7,727.62A1.43,1.43,0,0,0,70.28,729v33a1.43,1.43,0,0,0,1.42,1.42H795.55A1.43,1.43,0,0,0,797,762V729a1.43,1.43,0,0,0-1.43-1.42Z"/><path class="cls-2" d="M772.11,834.86H772a1.5,1.5,0,0,1-1.33-1.65l6.19-68.27a1.5,1.5,0,0,1,3,.32l-6.2,68.27A1.5,1.5,0,0,1,772.11,834.86Z"/><path class="cls-12" d="M556.09,337.08c.62,1.11,14.52,30.81,25.86,49.78,5.83,9.75,17.92,19.23,27,26l18.76,15.63c-9.49,7.36-31.3,17.24-54.88,23.73-24,6.62-40.87,3.63-52.87,2.08,1-3.28,17.54-22.95,14.67-31.29-5-14.54-15.73-26.42-23.59-39.64Z"/><path class="cls-2" d="M441.86,297.12c17.2-14.4,37.77.26,57.83-17.38,9.2-8.08,10-15.64,21.06-20.12,7.35-3,20.45-5.08,29.24,1.49,11.19,8.38,3.14,21.68,12.44,51.24,6.53,20.76,15.39,29.74,10.53,37.09s-16.54,2.15-22.52,9.87c-7.73,10,6.7,25.36,2.38,39.4-3,9.65-17.46,23.52-54.18,28.47-2.09-5.88-7.08-17.5-10.36-28.89-10.28-35.63-5-49.35-14-53.88-13.76-6.93-30.08,15.06-40.32,8.56C423.35,346.23,424.21,311.89,441.86,297.12Z"/><path class="cls-12" d="M513.86,313.92l-3.37,10.52s13.77,32.88,16.3,45.33S491.36,393,491.36,393l-6-4.37-10.6,2.76s0-36.34-10-60.47A54.1,54.1,0,0,1,513.86,313.92Z"/><path class="cls-3" d="M527,343s-3.56-24.1,7.75-23.4S549.3,346.87,527,343Z"/></g></g></svg>